<svg xmlns:dc="http://purl.org/dc/elements/1.1/" xmlns:cc="http://creativecommons.org/ns#" xmlns:rdf="http://www.w3.org/1999/02/22-rdf-syntax-ns#" xmlns:svg="http://www.w3.org/2000/svg" xmlns="http://www.w3.org/2000/svg" xmlns:xlink="http://www.w3.org/1999/xlink" id="svg431337" viewBox="0 0 1024 768" height="768px" width="1024px" version="1.1">
  <metadata id="metadata431343">
    <rdf:rdf>
      <cc:work rdf:about="">
        <dc:format>image/svg+xml</dc:format>
        <dc:type rdf:resource="http://purl.org/dc/dcmitype/StillImage"></dc:type>
      </cc:work>
    </rdf:rdf>
  </metadata>
  <defs id="defs431341"></defs>
  <linearGradient spreadMethod="pad" y2="30%" x2="-10%" y1="120%" x1="30%" id="3d_gradient2-logo-46508895-57c9-411c-9cb3-9847baafb824">
    <stop id="stop431318" stop-opacity="1" stop-color="#ffffff" offset="0%"></stop>
    <stop id="stop431320" stop-opacity="1" stop-color="#000000" offset="100%"></stop>
  </linearGradient>
  <linearGradient gradientTransform="rotate(-30)" spreadMethod="pad" y2="30%" x2="-10%" y1="120%" x1="30%" id="3d_gradient3-logo-46508895-57c9-411c-9cb3-9847baafb824">
    <stop id="stop431323" stop-opacity="1" stop-color="#ffffff" offset="0%"></stop>
    <stop id="stop431325" stop-opacity="1" stop-color="#cccccc" offset="50%"></stop>
    <stop id="stop431327" stop-opacity="1" stop-color="#000000" offset="100%"></stop>
  </linearGradient>
  <g id="logo-group">
    <image xlink:href="" id="container" x="272" y="144" width="480" height="480" style="display: none;" transform="translate(0 0)"></image>
    <g id="logo-center" transform="translate(0 0)">
      <image xlink:href="" id="icon_container" style="display: none;" x="0" y="0"></image>
      <g id="slogan" style="font-style:normal;font-weight:400;font-size:32px;line-height:1;font-family:Montserrat;font-variant-ligatures:none;text-align:center;text-anchor:middle" transform="translate(0 0)"></g>
      <g id="title" style="font-style:normal;font-weight:700;font-size:72px;line-height:1;font-family:'Comfortaa Bold Alt1';font-variant-ligatures:none;text-align:center;text-anchor:middle" transform="translate(0 0)">
        <path id="path431346" style="font-style:normal;font-weight:700;font-size:72px;line-height:1;font-family:'Comfortaa Bold Alt1';font-variant-ligatures:none;text-align:center;text-anchor:middle" d="m 410.075,-37.944 v 6.192 28.08 c 0,1.152 0.288,2.016 1.008,2.664 0.72,0.72 1.512,1.008 2.52,1.008 1.152,0 2.088,-0.288 2.808,-1.008 0.648,-0.648 1.008,-1.512 1.008,-2.664 v -28.08 h 7.344 c 1.008,0 1.8,-0.288 2.448,-0.864 0.576,-0.576 0.936,-1.296 0.936,-2.16 0,-0.936 -0.36,-1.728 -0.936,-2.304 -0.648,-0.576 -1.44,-0.864 -2.448,-0.864 h -7.344 v -1.944 c 0,-2.88 0.792,-5.256 2.448,-7.056 1.584,-1.728 3.744,-2.664 6.48,-2.664 1.008,0 1.872,-0.288 2.592,-0.936 0.72,-0.576 1.08,-1.368 1.08,-2.376 0,-0.936 -0.36,-1.728 -1.08,-2.376 -0.72,-0.576 -1.584,-0.936 -2.592,-0.936 -3.24,0 -6.048,0.72 -8.496,2.16 -2.448,1.44 -4.392,3.384 -5.76,5.976 -1.368,2.592 -2.016,5.544 -2.016,8.928 z" stroke-width="0" stroke-linejoin="miter" stroke-miterlimit="2" fill="#4862bd" stroke="#4862bd" transform="translate(0 343.4176) translate(251.7025437499999 -25.913200000000018) scale(2.35) translate(-410.075 56.232)"></path>
        <path id="path431348" style="font-style:normal;font-weight:700;font-size:72px;line-height:1;font-family:'Comfortaa Bold Alt1';font-variant-ligatures:none;text-align:center;text-anchor:middle" d="m 437.5205,-38.376 c -0.72,0.72 -1.008,1.584 -1.008,2.664 v 32.04 c 0,1.08 0.288,1.944 1.008,2.664 0.72,0.72 1.584,1.008 2.664,1.008 1.08,0 1.944,-0.288 2.664,-1.008 0.648,-0.72 1.008,-1.584 1.008,-2.664 v -32.04 c 0,-1.08 -0.36,-1.944 -1.008,-2.664 -0.72,-0.648 -1.584,-1.008 -2.664,-1.008 -1.08,0 -1.944,0.36 -2.664,1.008 z" stroke-width="0" stroke-linejoin="miter" stroke-miterlimit="2" fill="#4862bd" stroke="#4862bd" transform="translate(0 343.4176) translate(320.88066874999987 13.679599999999994) scale(2.35) translate(-436.5125 39.384)"></path>
        <path id="path431350" style="font-style:normal;font-weight:700;font-size:72px;line-height:1;font-family:'Comfortaa Bold Alt1';font-variant-ligatures:none;text-align:center;text-anchor:middle" d="m 489.19738,-33.192 c -3.74401,-4.32 -8.49601,-6.48 -14.11201,-6.48 -3.74399,0 -7.12799,0.864 -10.07999,2.592 -3.024,1.728 -5.32801,4.104 -6.98401,7.128 -1.656,3.024 -2.448,6.48 -2.448,10.296 0,3.744 0.792,7.2 2.52,10.224 1.728,3.024 4.10401,5.4 7.12801,7.128 3.024,1.728 6.40799,2.592 10.224,2.592 5.18399,0 9.504,-1.584 12.95999,-4.824 0.57601,-0.576 0.86401,-1.224 0.86401,-1.944 0,-0.936 -0.50401,-1.8 -1.368,-2.592 -0.57601,-0.432 -1.22401,-0.648 -1.872,-0.648 -0.86401,0 -1.80001,0.36 -2.66401,1.008 -2.016,1.728 -4.67999,2.52 -7.91999,2.52 -2.52001,0 -4.75201,-0.576 -6.69601,-1.728 -1.94399,-1.152 -3.45599,-2.736 -4.536,-4.752 -1.08,-2.016 -1.584,-4.392 -1.584,-6.984 0,-4.032 1.15201,-7.344 3.456,-9.792 2.304,-2.448 5.25601,-3.744 9,-3.744 1.8,0 3.38401,0.36 4.824,0.936 1.44,0.576 2.736,1.512 3.96,2.808 0.72001,0.864 1.656,1.296 2.808,1.296 0.576,0 1.15201,-0.144 1.656,-0.504 1.008,-0.72 1.584,-1.584 1.584,-2.664 0,-0.72 -0.288,-1.296 -0.71999,-1.872 z" stroke-width="0" stroke-linejoin="miter" stroke-miterlimit="2" fill="#4862bd" stroke="#4862bd" transform="translate(0 343.4176) translate(372.72371324999995 13.002800000000008) scale(2.35) translate(-455.57337 39.672)"></path>
        <path id="path431352" style="font-style:normal;font-weight:700;font-size:72px;line-height:1;font-family:'Comfortaa Bold Alt1';font-variant-ligatures:none;text-align:center;text-anchor:middle" d="m 529.41387,-37.584 c -2.664,-1.44 -5.616,-2.16 -8.928,-2.16 -2.448,0 -4.67999,0.432 -6.76799,1.296 -2.16,0.864 -3.96,2.016 -5.47201,3.528 v -17.64 c 0,-1.08 -0.36,-1.944 -1.008,-2.664 -0.72,-0.648 -1.584,-1.008 -2.664,-1.008 -1.08,0 -1.94399,0.36 -2.664,1.008 -0.72,0.72 -1.00799,1.584 -1.00799,2.664 V -3.6 c 0,1.08 0.28799,1.944 1.00799,2.664 0.72001,0.72 1.584,1.008 2.664,1.008 1.08,0 1.944,-0.288 2.664,-1.008 0.648,-0.72 1.008,-1.584 1.008,-2.664 v -20.304 c 0,-1.728 0.432,-3.24 1.368,-4.68 0.936,-1.368 2.232,-2.448 3.88801,-3.312 1.65599,-0.792 3.52799,-1.224 5.544,-1.224 3.456,0 6.192,1.008 8.27999,3.024 2.088,2.016 3.168,4.896 3.168,8.784 V -3.6 c 0,1.08 0.28801,1.944 1.00801,2.664 0.71999,0.72 1.58399,1.008 2.664,1.008 1.00799,0 1.87199,-0.288 2.592,-1.008 0.72,-0.72 1.07999,-1.584 1.07999,-2.664 v -17.712 c 0,-3.888 -0.79199,-7.2 -2.232,-9.936 -1.51199,-2.736 -3.59999,-4.896 -6.192,-6.336 z" stroke-width="0" stroke-linejoin="miter" stroke-miterlimit="2" fill="#4862bd" stroke="#4862bd" transform="translate(0 343.4176) translate(486.29571174999995 -25.913200000000018) scale(2.35) translate(-500.90188 56.232)"></path>
        <path id="path431354" style="font-style:normal;font-weight:700;font-size:72px;line-height:1;font-family:'Comfortaa Bold Alt1';font-variant-ligatures:none;text-align:center;text-anchor:middle" d="m 551.77662,-37.944 v 6.192 17.784 c 0,2.664 0.504,5.04 1.65601,7.128 1.07999,2.16 2.592,3.816 4.53599,5.04 1.94401,1.224 4.10401,1.8 6.48,1.8 h 1.29601 c 1.22399,0 2.232,-0.288 3.024,-1.008 0.79199,-0.648 1.22399,-1.512 1.22399,-2.592 0,-1.008 -0.36,-1.872 -0.936,-2.592 -0.57599,-0.648 -1.296,-1.008 -2.16,-1.008 h -2.448 c -1.58399,0 -2.88,-0.648 -3.888,-1.944 -1.07999,-1.296 -1.58399,-2.88 -1.58399,-4.824 v -17.784 h 6.12 c 1.00799,0 1.79999,-0.288 2.44799,-0.864 0.57601,-0.576 0.93601,-1.296 0.93601,-2.16 0,-0.936 -0.36,-1.728 -0.93601,-2.304 -0.648,-0.576 -1.44,-0.864 -2.44799,-0.864 h -6.12 v -10.368 c 0,-1.008 -0.36001,-1.872 -1.00801,-2.592 -0.72,-0.648 -1.58399,-1.008 -2.592,-1.008 -1.08,0 -1.94399,0.36 -2.592,1.008 -0.72,0.72 -1.008,1.584 -1.008,2.592 z" stroke-width="0" stroke-linejoin="miter" stroke-miterlimit="2" fill="#4862bd" stroke="#4862bd" transform="translate(0 343.4176) translate(612.90135075 -15.761200000000002) scale(2.35) translate(-551.77662 51.912)"></path>
        <path id="path431356" style="font-style:normal;font-weight:700;font-size:72px;line-height:1;font-family:'Comfortaa Bold Alt1';font-variant-ligatures:none;text-align:center;text-anchor:middle" d="m 616.60475,-19.656 c 0,-3.672 -0.936,-7.128 -2.664,-10.152 -1.728,-3.024 -4.104,-5.472 -7.128,-7.2 -3.024,-1.728 -6.336,-2.664 -10.008,-2.664 -3.744,0 -7.128,0.936 -10.152,2.664 -3.024,1.728 -5.4,4.176 -7.128,7.2 -1.728,3.024 -2.592,6.408 -2.592,10.152 0,3.744 0.792,7.2 2.376,10.224 1.584,3.024 3.816,5.4 6.624,7.128 2.88,1.8 5.976,2.664 9.432,2.664 h 0.576 17.208 c 0.936,0 1.728,-0.36 2.448,-1.008 0.648,-0.648 1.008,-1.44 1.008,-2.448 V -3.6 Z m -30.96,6.912 c -1.152,-2.016 -1.656,-4.32 -1.656,-6.912 0,-2.52 0.504,-4.824 1.656,-6.912 1.152,-2.016 2.664,-3.672 4.608,-4.824 1.944,-1.152 4.104,-1.8 6.552,-1.8 2.376,0 4.536,0.648 6.48,1.8 1.944,1.152 3.456,2.808 4.608,4.824 1.08,2.088 1.656,4.392 1.656,6.912 0,2.592 -0.576,4.896 -1.656,6.912 -1.152,2.016 -2.664,3.672 -4.608,4.824 -1.944,1.152 -4.104,1.728 -6.48,1.728 -2.448,0 -4.608,-0.576 -6.552,-1.728 -1.944,-1.152 -3.456,-2.808 -4.608,-4.824 z" stroke-width="0" stroke-linejoin="miter" stroke-miterlimit="2" fill="#4862bd" stroke="#4862bd" transform="translate(0 343.4176) translate(679.0682562500001 13.002800000000008) scale(2.35) translate(-576.93275 39.672)"></path>
      </g>
      <image xlink:href="" id="icon" style="display: none;" x="0" y="0"></image>
    </g>
  </g>
</svg>